<svg width="324" height="324" viewBox="0 0 324 324" fill="none" xmlns="http://www.w3.org/2000/svg">
<g clip-path="url(#clip0_4233_7884)">
<path d="M161.506 323.115C250.703 323.115 323.012 250.807 323.012 161.61C323.012 72.4124 250.703 0.10376 161.506 0.10376C72.3086 0.10376 0 72.4124 0 161.61C0 250.807 72.3086 323.115 161.506 323.115Z" fill="#002226"/>
<path d="M49.1626 199.446L297.899 199.446V23.0601L49.1626 23.0601L49.1626 199.446Z" fill="#004B55"/>
<path d="M290.095 176.522V30.8671L56.9622 30.8671L56.9622 176.522L290.095 176.522Z" fill="#D7F6FA"/>
<path d="M147.35 203.195H154.71C154.71 208.72 159.193 213.203 164.718 213.203H182.351C187.876 213.203 192.36 208.72 192.36 203.195H199.72L207.08 242.327V245.593H139.989V242.327L147.35 203.195Z" fill="#004B55"/>
<path d="M207.08 250.076H139.989C139.778 250.076 139.601 249.899 139.601 249.688C139.601 249.476 139.778 249.299 139.989 249.299H207.08C207.292 249.299 207.469 249.476 207.469 249.688C207.469 249.899 207.292 250.076 207.08 250.076Z" fill="white"/>
<path d="M216.718 105.162H65.5378V165.863H216.718V105.162Z" fill="#004B55"/>
<path d="M281.514 105.162H225.473V165.863H281.514V105.162Z" fill="#004B55"/>
<path d="M281.514 98.5428H65.5379C65.326 98.5428 65.1495 98.3663 65.1495 98.1545V41.5304C65.1495 41.3186 65.326 41.1421 65.5379 41.1421H281.514C281.726 41.1421 281.903 41.3186 281.903 41.5304V98.1545C281.903 98.3663 281.726 98.5428 281.514 98.5428ZM65.9262 97.7662H281.126V41.9187H65.9262V97.7662Z" fill="#4CCBDC"/>
<path d="M270.518 53.2859H222.295C222.084 53.2859 221.907 53.1094 221.907 52.8976C221.907 52.6858 222.084 52.5093 222.295 52.5093H270.518C270.73 52.5093 270.906 52.6858 270.906 52.8976C270.906 53.1094 270.73 53.2859 270.518 53.2859Z" fill="#4CCBDC"/>
<path d="M270.518 60.9817H214.158C213.947 60.9817 213.77 60.8052 213.77 60.5934C213.77 60.3816 213.947 60.2051 214.158 60.2051H270.518C270.729 60.2051 270.906 60.3816 270.906 60.5934C270.906 60.8052 270.729 60.9817 270.518 60.9817Z" fill="#4CCBDC"/>
<path d="M270.518 68.6598H214.158C213.947 68.6598 213.77 68.4833 213.77 68.2715C213.77 68.0597 213.947 67.8832 214.158 67.8832H270.518C270.729 67.8832 270.906 68.0597 270.906 68.2715C270.906 68.4833 270.729 68.6598 270.518 68.6598Z" fill="#4CCBDC"/>
<path d="M259.656 137.212C260.6 133.802 258.602 130.272 255.191 129.327C251.781 128.383 248.251 130.382 247.307 133.792C246.362 137.202 248.361 140.732 251.771 141.677C255.181 142.621 258.711 140.622 259.656 137.212Z" fill="white"/>
<path d="M317.187 293.197H224.608V118.541H245.471C247.236 124.207 252.231 128.038 257.862 128.038H283.932C289.545 128.038 294.541 124.207 296.323 118.541V118.524H317.187V293.197Z" fill="#C1F3FA"/>
<path d="M313.78 303.893H227.414C221.784 303.893 217.194 299.304 217.194 293.674V116.406C217.194 110.775 221.784 106.186 227.414 106.186H313.78C319.411 106.186 324 110.775 324 116.406V293.674C324 299.304 319.411 303.893 313.78 303.893ZM227.397 106.962C222.19 106.962 217.953 111.199 217.953 116.406V293.674C217.953 298.881 222.19 303.117 227.397 303.117H313.762C318.969 303.117 323.206 298.881 323.206 293.674V116.406C323.206 111.199 318.969 106.962 313.762 106.962H227.397Z" fill="#00B2CB"/>
<path d="M312.492 242.698H228.703C228.491 242.698 228.315 242.521 228.315 242.309V177.336C228.315 177.124 228.491 176.948 228.703 176.948H312.492C312.704 176.948 312.88 177.124 312.88 177.336V242.309C312.88 242.521 312.704 242.698 312.492 242.698ZM229.091 241.921H312.103V177.725H229.091V241.921Z" fill="#4CCBDC"/>
<path d="M312.492 134.709H228.703V172.641H312.492V134.709Z" fill="#004B55"/>
<path d="M312.492 246.987H228.703V284.919H312.492V246.987Z" fill="#004B55"/>
<path d="M304.054 186.939H266.281C266.07 186.939 265.893 186.762 265.893 186.55C265.893 186.338 266.07 186.162 266.281 186.162H304.054C304.266 186.162 304.443 186.338 304.443 186.55C304.443 186.78 304.266 186.939 304.054 186.939Z" fill="#4CCBDC"/>
<path d="M304.054 194.634H259.91C259.698 194.634 259.521 194.458 259.521 194.246C259.521 194.034 259.698 193.858 259.91 193.858H304.054C304.266 193.858 304.443 194.034 304.443 194.246C304.443 194.458 304.266 194.634 304.054 194.634Z" fill="#4CCBDC"/>
<path d="M304.054 202.313H259.91C259.698 202.313 259.521 202.136 259.521 201.924C259.521 201.712 259.698 201.536 259.91 201.536H304.054C304.266 201.536 304.443 201.712 304.443 201.924C304.443 202.136 304.266 202.313 304.054 202.313Z" fill="#4CCBDC"/>
<path d="M126.575 151.337C122.727 143.253 119.779 138.893 114.625 137.092C107.706 134.674 101.016 139.193 100.328 139.669C99.8864 139.97 93.3379 143.976 92.9673 151.672C92.7025 157.214 94.5735 162.739 98.1213 166.834C100.557 169.658 100.945 173.718 99.0392 176.931L87.0189 197.123C87.5661 202.489 92.3671 206.408 97.733 205.86L98.9509 205.737C104.317 205.19 115.049 201.059 114.501 195.676L123.945 174.177C127.334 173.542 129.928 172.288 130.828 170.453C132.47 167.17 131.093 160.851 126.575 151.337Z" fill="#E2A18D"/>
<path d="M124.086 174.301C124.068 174.301 124.033 174.301 124.015 174.301L119.867 173.542C119.655 173.506 119.514 173.294 119.55 173.083C119.585 172.871 119.797 172.73 120.009 172.765L124.156 173.524C124.368 173.559 124.51 173.771 124.474 173.983C124.439 174.159 124.28 174.301 124.086 174.301Z" fill="#363E44"/>
<path d="M117.273 162.616C117.184 162.616 117.096 162.58 117.008 162.51C116.496 162.051 116.019 161.627 115.543 161.168C115.155 160.798 114.749 160.427 114.29 160.021C114.131 159.88 114.113 159.633 114.254 159.474C114.396 159.315 114.643 159.297 114.802 159.439C115.26 159.862 115.666 160.233 116.072 160.603C116.549 161.045 117.008 161.468 117.52 161.927C117.679 162.069 117.696 162.316 117.555 162.474C117.484 162.58 117.379 162.616 117.273 162.616Z" fill="#363E44"/>
<path d="M82.8887 156.402C81.4766 152.149 83.7713 147.559 88.0251 146.13H88.0428C87.372 145.424 86.8425 144.559 86.5071 143.57C85.2892 139.899 87.2661 135.945 90.9375 134.727C91.6965 134.48 92.4731 134.374 93.2498 134.374C92.2966 130.826 94.2559 127.102 97.7861 125.919C99.7806 125.249 101.863 125.549 103.54 126.537C104.211 123.942 106.135 121.718 108.853 120.818C112.984 119.441 117.432 121.56 119.002 125.584C119.197 125.496 119.391 125.425 119.585 125.355C123.256 124.137 127.21 126.114 128.428 129.785C129.646 133.456 127.669 137.41 123.998 138.628C123.892 138.663 123.786 138.681 123.68 138.716C125.321 145.353 118.702 148.336 118.332 148.583C120.079 151.301 121.809 154.02 123.556 156.72C122.533 157.409 121.332 158.309 120.291 158.997C118.614 156.085 117.008 155.273 115.155 155.538C112.26 155.944 110.512 159.28 111.13 162.051C111.695 164.575 113.407 166.852 116.178 167.47C113.425 168.44 110.512 169.358 107.459 170.223C105.87 170.682 104.299 171.088 102.746 171.476C101.634 171.176 94.4677 169.093 90.8669 161.963C87.3897 162.086 84.0537 159.915 82.8887 156.402Z" fill="#363E44"/>
<path d="M53.6057 157.338C53.6057 157.338 69.2621 166.499 81.9531 172.465C94.4852 178.36 149.079 209.726 149.079 209.726L133.917 261.073L111.412 315.19C67.444 300.928 30.7302 268.645 13.9618 228.401L31.1361 197.6L53.6057 157.338Z" fill="#00B2CB"/>
<path d="M221.073 304.133L247.022 201.492L177.477 183.91L151.528 286.551L221.073 304.133Z" fill="#363E44"/>
<path d="M203.439 250.987C207.282 248.696 208.54 243.722 206.248 239.879C203.956 236.036 198.983 234.778 195.14 237.07C191.297 239.362 190.039 244.335 192.331 248.179C194.623 252.022 199.596 253.279 203.439 250.987Z" fill="#40484C"/>
<path d="M244.906 260.366C244.412 259.078 243.123 258.178 241.623 257.983C241.764 257.86 243.582 256.218 243.247 253.782C242.982 251.929 241.588 250.376 239.699 249.882C240.546 248.275 240.635 246.475 239.823 245.187C237.352 241.321 224.166 246.704 217.918 249.052C215.164 250.093 191.689 259.307 175.397 265.715L173.72 257.93C157.481 263.561 138.63 268.609 138.63 268.609C141.984 288.431 149.591 297.963 149.591 297.963C156.899 306.418 166.519 305.976 171.337 304.582C183.781 300.963 194.813 296.71 218.43 284.954C228.491 279.941 236.61 275.264 242.17 273.163C243.9 272.034 244.818 270.11 244.5 268.274C244.2 266.632 243.018 265.679 242.665 265.432C244.712 264.426 245.595 262.131 244.906 260.366Z" fill="#E2A18D"/>
<path d="M165.159 269.968C165 269.968 164.859 269.862 164.789 269.721C164.718 269.527 164.824 269.298 165.018 269.227C167.983 268.133 174.532 265.644 180.851 263.243C187.17 260.843 193.719 258.354 196.684 257.26C196.878 257.189 197.107 257.295 197.178 257.489C197.249 257.683 197.143 257.913 196.949 257.983C193.983 259.078 187.435 261.567 181.116 263.967C174.797 266.368 168.248 268.856 165.283 269.951C165.248 269.968 165.195 269.968 165.159 269.968Z" fill="#363E44"/>
<path d="M231.739 250.87C231.58 250.87 231.421 250.764 231.368 250.588L230.521 247.781C230.45 247.569 230.574 247.358 230.786 247.305C230.997 247.234 231.209 247.358 231.262 247.569L232.109 250.376C232.18 250.588 232.056 250.799 231.845 250.852C231.809 250.87 231.774 250.87 231.739 250.87Z" fill="#363E44"/>
<path d="M233.91 258.001C233.751 258.001 233.592 257.895 233.539 257.719L232.692 254.912C232.621 254.7 232.745 254.489 232.957 254.436C233.168 254.365 233.38 254.489 233.433 254.7L234.28 257.507C234.351 257.719 234.227 257.931 234.016 257.984C233.98 258.001 233.945 258.001 233.91 258.001Z" fill="#363E44"/>
<path d="M236.204 265.256C236.046 265.256 235.887 265.15 235.834 264.973L234.986 262.167C234.916 261.955 235.039 261.743 235.251 261.69C235.463 261.62 235.675 261.743 235.728 261.955L236.575 264.761C236.646 264.973 236.522 265.185 236.31 265.238C236.275 265.238 236.24 265.256 236.204 265.256Z" fill="#363E44"/>
<path d="M238.146 271.857C237.987 271.857 237.828 271.751 237.775 271.575L236.928 268.768C236.857 268.556 236.981 268.345 237.193 268.292C237.405 268.221 237.616 268.345 237.669 268.556L238.517 271.363C238.587 271.575 238.464 271.787 238.252 271.84C238.217 271.857 238.181 271.857 238.146 271.857Z" fill="#363E44"/>
<path d="M132.223 276.676L180.992 260.737C180.992 260.737 178.698 224.482 140.484 204.607C116.196 191.969 121.297 262.343 121.297 262.343L132.223 276.676Z" fill="#00B2CB"/>
<path d="M128.092 269.051C127.951 269.051 127.828 268.98 127.757 268.856L120.661 256.413C120.556 256.218 120.626 255.989 120.803 255.883C120.997 255.777 121.226 255.848 121.332 256.024L128.428 268.468C128.534 268.662 128.463 268.892 128.287 268.998C128.216 269.033 128.163 269.051 128.092 269.051Z" fill="#363E44"/>
<path d="M60.6484 128.849C60.6484 128.849 82.8708 110.828 97.98 106.521C128.163 97.9075 134.2 86.3461 131.481 83.9103C128.534 81.2626 124.192 85.8519 120.909 87.7935C121.085 87.158 121.226 85.2164 119.814 83.8573C117.731 81.8451 115.649 82.8336 115.419 82.8336C115.49 82.6218 116.266 80.3448 115.084 78.7915C113.742 77.0264 111.907 76.5852 110.283 76.9029C110.459 76.3733 110.9 74.3611 109.718 72.8961C108.5 71.3781 106.382 71.0781 104.546 71.537C95.756 73.7434 89.1016 74.8907 84.4241 76.9205C75.228 80.9449 43.8623 94.4655 32.3893 103.891C24.7464 111.816 32.8305 125.849 44.9214 130.456C52.5466 133.386 60.6484 128.849 60.6484 128.849Z" fill="#E2A18D"/>
<path d="M104.299 77.962C104.193 77.962 104.07 77.9091 103.999 77.8208L102.022 75.3673C101.881 75.2085 101.916 74.9614 102.075 74.8201C102.234 74.6789 102.481 74.7142 102.622 74.8731L104.599 77.3089C104.74 77.4678 104.705 77.7149 104.546 77.8561C104.476 77.9267 104.387 77.962 104.299 77.962Z" fill="#363E44"/>
<path d="M109.294 84.1751C109.188 84.1751 109.082 84.1222 108.994 84.0339L106.682 81.3334C106.541 81.1745 106.558 80.9274 106.717 80.7862C106.876 80.645 107.123 80.6626 107.264 80.8215L109.577 83.5221C109.718 83.6809 109.7 83.928 109.541 84.0692C109.488 84.1399 109.4 84.1751 109.294 84.1751Z" fill="#363E44"/>
<path d="M114.378 89.9998C114.272 89.9998 114.148 89.9469 114.078 89.8586C113.707 89.3997 113.372 88.9937 113.036 88.5878C112.701 88.1818 112.366 87.7758 111.995 87.3169C111.854 87.1581 111.889 86.9109 112.048 86.7697C112.207 86.6285 112.454 86.6638 112.595 86.8227C112.966 87.2816 113.301 87.6876 113.636 88.0936C113.972 88.4995 114.307 88.9055 114.678 89.3644C114.819 89.5233 114.784 89.7704 114.625 89.9116C114.554 89.9645 114.466 89.9998 114.378 89.9998Z" fill="#363E44"/>
<path d="M117.996 95.2776C117.873 95.2776 117.749 95.2246 117.679 95.1187L115.896 92.577C115.772 92.4005 115.808 92.1534 115.984 92.0298C116.161 91.9063 116.408 91.9416 116.531 92.1181L118.314 94.6598C118.438 94.8363 118.402 95.0834 118.226 95.207C118.155 95.2599 118.084 95.2776 117.996 95.2776Z" fill="#363E44"/>
<path d="M63.5255 121.383V164.363L23.8462 184.467C23.1049 158.962 23.3873 130.791 29.6534 109.045L63.5255 121.383Z" fill="#E2A18D"/>
<path d="M24.7289 209.797C20.3162 194.352 20.3162 164.363 20.3162 164.363L65.5907 148.301L70.2506 166.587L24.7289 209.797Z" fill="#00B2CB"/>
<path d="M24.7289 210.185C24.6406 210.185 24.57 210.167 24.4994 210.114C24.3229 209.991 24.2876 209.743 24.4112 209.567L38.4083 190.663C38.5319 190.486 38.779 190.451 38.9555 190.575C39.132 190.698 39.1673 190.945 39.0438 191.122L25.0466 210.026C24.976 210.132 24.8524 210.185 24.7289 210.185Z" fill="#363E44"/>
</g>
<defs>
<clipPath id="clip0_4233_7884">
<rect width="324" height="323.012" fill="white" transform="translate(0 0.10376)"/>
</clipPath>
</defs>
</svg>
