<svg width="330" height="330" viewBox="0 0 330 330" fill="none" xmlns="http://www.w3.org/2000/svg">
<g clip-path="url(#clip0_4233_6042)">
<path d="M165 330C256.127 330 330 256.167 330 165.09C330 74.0129 256.127 0.180298 165 0.180298C73.873 0.180298 0 74.0129 0 165.09C0 256.167 73.873 330 165 330Z" fill="#1C0202"/>
<path d="M325.724 158.13H320.564C320.095 155.605 319.445 153.17 318.597 150.808L323.072 148.23L314.321 133.1L309.846 135.679C308.204 133.749 306.4 131.964 304.488 130.323L307.068 125.851L291.93 117.105L289.35 121.577C286.986 120.748 284.533 120.08 282.025 119.611V114.454H264.541V119.611C262.015 120.08 259.58 120.73 257.216 121.577L254.636 117.105L239.498 125.851L242.078 130.323C240.148 131.964 238.361 133.767 236.72 135.679L232.245 133.1L223.494 148.23L227.969 150.808C227.139 153.17 226.471 155.623 226.002 158.13H220.842V175.603H226.002C226.471 178.128 227.121 180.562 227.969 182.925L223.494 185.503L232.245 200.633L236.72 198.054C238.361 199.984 240.166 201.769 242.078 203.41L239.498 207.882L254.636 216.628L257.216 212.156C259.58 212.985 262.033 213.652 264.541 214.121V219.279H282.025V214.121C284.551 213.652 286.986 213.003 289.35 212.156L291.93 216.628L307.068 207.882L304.488 203.41C306.418 201.769 308.204 199.966 309.846 198.054L314.321 200.633L323.072 185.503L318.597 182.925C319.427 180.562 320.095 178.11 320.564 175.603H325.724V158.13ZM304.325 179.823C301.168 188.154 294.546 194.772 286.21 197.928C257.884 208.621 231.487 182.221 242.186 153.928C245.344 145.597 251.966 138.979 260.301 135.823C288.628 125.111 315.043 151.511 304.325 179.823Z" fill="#AA3232"/>
<path d="M273.256 205.502C251.947 205.502 234.609 188.172 234.609 166.875C234.609 157.571 237.964 148.572 244.063 141.557C250.107 134.615 258.407 130.034 267.464 128.682C267.681 128.646 267.879 128.79 267.915 129.025C267.951 129.241 267.807 129.439 267.572 129.475C249.223 132.234 235.384 148.302 235.384 166.875C235.384 187.739 252.362 204.708 273.238 204.708C290.487 204.708 305.552 193.077 309.882 176.415C309.937 176.198 310.153 176.072 310.37 176.126C310.586 176.18 310.712 176.397 310.658 176.613C306.256 193.618 290.865 205.502 273.256 205.502Z" fill="#FEF0E6"/>
<path d="M276.449 274.531H134.111C128.301 274.531 123.574 269.807 123.574 264V10.5311C123.574 4.72459 128.301 0 134.111 0H276.449C282.259 0 286.986 4.72459 286.986 10.5311V264C286.986 269.807 282.259 274.531 276.449 274.531ZM134.111 0.793443C128.734 0.793443 124.368 5.15738 124.368 10.5311V264C124.368 269.374 128.734 273.738 134.111 273.738H276.449C281.826 273.738 286.192 269.374 286.192 264V10.5311C286.192 5.15738 281.826 0.793443 276.449 0.793443H134.111Z" fill="#363E44"/>
<path d="M234.951 9.64758V13.741C234.951 15.8869 233.219 17.6181 231.072 17.6181H179.488C177.341 17.6181 175.609 15.8869 175.609 13.741V9.64758H136.132C133.624 9.64758 131.603 11.6673 131.603 14.1738V258.626C131.603 260.285 132.938 261.62 134.598 261.62H274.429C276.937 261.62 278.957 259.6 278.957 257.093V14.1738C278.957 11.6673 276.937 9.64758 274.429 9.64758H234.951Z" fill="#401111"/>
<path d="M250.293 44.4348C250.293 51.3082 244.501 56.8625 237.375 56.8625H173.919C166.774 56.8625 161 51.2909 161 44.4348V43.4802C161 36.6068 166.792 31.0525 173.919 31.0525H237.375C244.519 31.0525 250.293 36.6241 250.293 43.4802V44.4348Z" fill="#AA3232"/>
<path d="M250.293 85.2447C250.293 92.1182 244.501 97.6724 237.375 97.6724H173.919C166.774 97.6724 161 92.1008 161 85.2447V84.2901C161 77.4167 166.792 71.8624 173.919 71.8624H237.375C244.519 71.8624 250.293 77.4341 250.293 84.2901V85.2447Z" fill="#AA3232"/>
<path opacity="0.4" d="M252.651 182.582H157.909V192.734H252.651V182.582Z" fill="white"/>
<path opacity="0.4" d="M252.651 197.08H157.909V221.731H252.651V197.08Z" fill="white"/>
<path d="M313.383 64.2147H237.513V83.7983H313.383V64.2147Z" fill="#04BF55"/>
<path d="M247.852 78.5327C250.353 78.5327 252.381 76.5062 252.381 74.0065C252.381 71.5067 250.353 69.4802 247.852 69.4802C245.351 69.4802 243.323 71.5067 243.323 74.0065C243.323 76.5062 245.351 78.5327 247.852 78.5327Z" fill="white"/>
<path d="M266.024 75.0457C266.646 72.6246 265.187 70.1576 262.765 69.5354C260.342 68.9132 257.874 70.3715 257.251 72.7925C256.629 75.2135 258.088 77.6805 260.51 78.3027C262.933 78.9249 265.401 77.4667 266.024 75.0457Z" fill="white"/>
<path d="M275.439 78.3524C277.94 78.3524 279.968 76.3259 279.968 73.8262C279.968 71.3264 277.94 69.2999 275.439 69.2999C272.938 69.2999 270.91 71.3264 270.91 73.8262C270.91 76.3259 272.938 78.3524 275.439 78.3524Z" fill="white"/>
<path d="M290.106 78.171C292.562 77.6961 294.167 75.3215 293.692 72.8672C293.217 70.4129 290.841 68.8084 288.385 69.2833C285.93 69.7583 284.324 72.1329 284.799 74.5872C285.275 77.0414 287.651 78.646 290.106 78.171Z" fill="white"/>
<path d="M303.573 78.153C306.055 77.8496 307.822 75.5921 307.518 73.1108C307.214 70.6295 304.956 68.8641 302.473 69.1676C299.991 69.471 298.224 71.7285 298.528 74.2098C298.831 76.691 301.09 78.4565 303.573 78.153Z" fill="white"/>
<path d="M318.092 86.8098H248.754V94.4196H318.092V86.8098Z" fill="#4A4AF2"/>
<path d="M170.611 232.587C170.611 232.587 173.462 200.633 201.284 209.216C229.087 217.782 252.489 214.157 252.489 214.157C252.489 214.157 248.068 236.229 229.358 231.036L234.554 235.184C234.554 235.184 225.714 244.543 208.05 239.079C190.368 233.633 176.854 226.87 170.611 232.587Z" fill="#4A4AF2"/>
<path d="M163.069 225.572C162.654 226.095 162.925 186.838 163.033 172.808C163.051 169.652 164.224 166.605 166.317 164.243L182.573 145.831C182.573 145.831 188.022 162.457 175.555 169.995C163.069 177.515 187.246 194.916 163.069 225.572Z" fill="#4A4AF2"/>
<path d="M159.569 233.326L158.956 232.929C158.432 232.587 146.109 224.49 144.702 217.764C144.395 216.339 144.612 215.041 145.333 213.941C148.148 209.649 147.896 204.726 146.037 202.472C144.792 200.957 142.862 200.615 140.624 201.534C136.998 203.013 131.134 201.588 126.028 197.982C120.687 194.195 117.746 189.2 117.981 184.277C118.486 173.692 112.189 167.236 112.117 167.182L110.295 165.361L154.229 188.262C157.53 189.975 159.569 193.347 159.569 197.062V233.326ZM142.97 200.218C144.431 200.218 145.694 200.795 146.633 201.949C148.96 204.78 148.689 210.226 145.983 214.356C145.37 215.293 145.207 216.339 145.46 217.584C146.633 223.174 156.231 230.08 158.757 231.829V197.062C158.757 193.654 156.881 190.534 153.85 188.966L113.939 168.12C115.834 170.698 119.136 176.379 118.775 184.277C118.558 188.929 121.355 193.672 126.479 197.297C131.296 200.705 136.98 202.129 140.318 200.777C141.256 200.398 142.158 200.218 142.97 200.218Z" fill="#4A4AF2"/>
<path d="M169.619 280.139C169.402 280.139 169.222 279.959 169.222 279.742V236.698V236.662C169.637 233.813 170.774 231.397 172.524 229.647C181.238 220.938 194.103 217.331 206.083 220.27C215.429 222.56 225.317 222.56 234.663 220.27L238.56 219.315C238.776 219.26 238.993 219.387 239.047 219.603C239.101 219.819 238.975 220.036 238.758 220.09L234.861 221.046C225.389 223.372 215.375 223.372 205.903 221.046C194.193 218.179 181.617 221.695 173.101 230.224C171.495 231.829 170.431 234.101 170.034 236.77V279.76C170.016 279.959 169.853 280.139 169.619 280.139Z" fill="#363E44"/>
<path d="M162.853 280.139C162.636 280.139 162.456 279.959 162.456 279.743V172.682C162.456 172.465 162.636 172.285 162.853 172.285C163.069 172.285 163.249 172.465 163.249 172.682V279.724C163.249 279.959 163.069 280.139 162.853 280.139Z" fill="#363E44"/>
<path d="M159.172 280.139C158.956 280.139 158.775 279.959 158.775 279.742V232.749C158.775 232.533 158.956 232.352 159.172 232.352C159.388 232.352 159.569 232.533 159.569 232.749V279.742C159.569 279.959 159.388 280.139 159.172 280.139Z" fill="#4A4AF2"/>
<path d="M145.388 278.246V303.041C145.388 316.728 156.484 327.836 170.196 327.836C183.891 327.836 195.005 316.746 195.005 303.041V278.246H145.388Z" fill="#AA3232"/>
<path d="M39.2247 276.623L44.8359 302.031H62.5899V275L39.2247 276.623Z" fill="#E2A18D"/>
<path d="M101.742 273.449L108.075 300.174L128.41 300.156L123.484 273.449H101.742Z" fill="#E2A18D"/>
<path d="M108.057 299.272L110.313 329.477L166.57 329.459C158.956 317.774 146.56 304.267 128.355 299.272H108.057Z" fill="#FACACA"/>
<path d="M44.6014 300.985C44.6014 302.085 37.4745 330 37.4745 330H78.3051L62.2471 300.985H44.6014Z" fill="#FACACA"/>
<path d="M58.404 138.582C58.404 138.582 52.8469 174.593 96.9972 282.502H125.793C125.793 282.502 103.023 150.754 100.588 134.128L58.404 138.582Z" fill="#4A4AF2"/>
<path d="M33.9563 143.848C33.9563 143.848 22.7879 200.615 37.7993 282.484H64.5746C64.5746 282.484 69.374 163.702 76.2663 145.867L33.9563 143.848Z" fill="#4A4AF2"/>
<path d="M70.3302 196.449H70.3121C70.0956 196.431 69.9152 196.251 69.9333 196.035L71.1962 171.041L80.2536 167.921C80.4702 167.849 80.6867 167.957 80.7588 168.174C80.831 168.39 80.7228 168.607 80.5062 168.679L71.954 171.618L70.7091 196.089C70.7271 196.287 70.5467 196.449 70.3302 196.449Z" fill="#363E44"/>
<path d="M22.3548 125.941L23.4374 126.356L43.0498 99.2886L22.8239 81.2378L12.9005 103.003C8.84089 111.93 13.1711 122.443 22.3548 125.941Z" fill="#E2A18D"/>
<path d="M103.745 77.5049C103.745 77.5049 114.228 87.1345 120.002 80.8951C125.992 74.4213 132.992 66.9558 136.619 63.4394C144.089 56.2082 156.195 46.6148 157.512 48.3279C158.27 49.3017 156.881 50.9427 152.911 55.1082C153.326 55.0902 154.571 55.3787 155.131 56.3886C155.943 57.8853 154.914 58.8771 154.86 59.0213C155.004 59.0033 156.592 58.9312 157.314 59.8328C158.126 60.8607 157.945 61.9607 157.458 62.8623C157.801 62.8443 159.299 62.9705 159.93 63.8902C160.76 65.0804 160.092 66.541 159.226 67.3705C157.621 68.8672 153.146 72.8886 151.035 75.3049C148.419 78.3164 138.189 90.8312 131.008 99.6312C126.515 105.131 119.298 107.638 112.352 106.105L104.07 104.266L103.745 77.5049Z" fill="#E2A18D"/>
<path d="M144.684 71.7706C144.63 71.7706 144.558 71.7525 144.504 71.7345C144.305 71.6443 144.233 71.3919 144.323 71.1935C145.315 69.2279 145.297 67.4427 145.297 66.0001C145.297 64.4853 145.279 63.1689 146.615 62.646C147.372 62.3574 148.13 61.6181 148.852 60.5001C149.032 60.2115 148.87 59.9591 148.816 59.887C148.707 59.7427 148.491 59.6165 148.22 59.6886L141.743 61.6361C141.526 61.7083 141.31 61.582 141.256 61.3656C141.184 61.1492 141.31 60.9329 141.527 60.8788L148.004 58.9312C148.545 58.7689 149.122 58.9492 149.465 59.4001C149.808 59.8509 149.826 60.446 149.537 60.9329C148.726 62.2132 147.841 63.0427 146.921 63.4033C146.127 63.7099 146.109 64.4673 146.109 66.0001C146.109 67.4427 146.127 69.4263 145.063 71.5542C144.973 71.6984 144.828 71.7706 144.684 71.7706Z" fill="#363E44"/>
<path d="M155.564 69.4082C155.455 69.4082 155.347 69.3722 155.275 69.282C154.229 68.182 153.976 66.5771 154.535 65.2427L154.517 65.2607C153.507 65.982 152.136 65.8558 151.251 65.0082C150.746 64.5213 150.476 63.8722 150.476 63.1689C150.476 62.4656 150.746 61.8164 151.251 61.3295L151.63 60.9689C151.017 60.9509 150.422 60.6984 150.007 60.1935C149.321 59.3459 149.375 58.1377 150.133 57.3623L151.865 55.5951C152.027 55.4328 152.262 55.4328 152.424 55.5951C152.587 55.7574 152.587 55.9918 152.424 56.1541L150.692 57.9213C150.223 58.4082 150.187 59.1656 150.62 59.6886C151.071 60.2476 151.901 60.3377 152.478 59.8869L153.832 58.841C153.994 58.7148 154.229 58.7328 154.373 58.8951C154.517 59.0574 154.499 59.2918 154.355 59.4361L151.811 61.8886C151.468 62.2312 151.27 62.664 151.27 63.1509C151.27 63.6377 151.45 64.0886 151.793 64.4131C152.406 65.0082 153.344 65.0804 154.048 64.5935L156.213 63.0607C156.376 62.9345 156.61 62.9705 156.736 63.1148C156.863 63.259 156.863 63.4935 156.736 63.6377L155.816 64.6295C154.752 65.7836 154.77 67.5689 155.852 68.7049C155.997 68.8672 155.997 69.1197 155.834 69.264C155.762 69.3722 155.672 69.4082 155.564 69.4082Z" fill="#363E44"/>
<path d="M32.7835 105.51L12.8644 97.1066C12.8644 97.1066 17.3931 84.6639 22.0662 77.3426C27.0279 69.5885 33.9021 66.3066 43.0498 65.3148C56.0585 63.9082 79.532 65.8557 96.2756 71.2836C117.44 78.1361 118.378 78.7492 118.378 78.7492L107.48 107.674L100.317 105.816L109.05 161.898L23.5998 165.054C23.6178 165.054 30.2936 115.464 32.7835 105.51Z" fill="#F24A4A"/>
<path d="M95.193 125.725H70.1318L83.3209 88.7394H108.075C110.096 88.7394 111.504 90.741 110.818 92.6345L100.317 122.118C99.5413 124.282 97.4844 125.725 95.193 125.725Z" fill="white"/>
<path d="M103.781 91.5705H87.4166L88.9142 87.0262H105.604L103.781 91.5705Z" fill="#4A4AF2"/>
<path d="M87.561 91.895C87.5249 91.895 87.4888 91.895 87.4527 91.877C87.2362 91.8229 87.1279 91.5885 87.1821 91.3901L88.5172 86.7377H105.622C105.838 86.7377 106.019 86.918 106.019 87.1344C106.019 87.3508 105.838 87.5311 105.622 87.5311H89.1126L87.9579 91.6065C87.8857 91.7869 87.7414 91.895 87.561 91.895Z" fill="#363E44"/>
<path d="M101.887 86.918C101.851 86.918 101.815 86.918 101.779 86.9C101.562 86.8459 101.454 86.6115 101.508 86.4131L102.608 82.5721H94.7239L93.5691 86.6475C93.515 86.8639 93.2985 86.9902 93.082 86.918C92.8655 86.8639 92.7572 86.6295 92.8113 86.4311L94.1465 81.7787H103.691L102.302 86.6475C102.212 86.8098 102.049 86.918 101.887 86.918Z" fill="#363E44"/>
<path d="M97.9896 86.3049C97.1777 86.3049 96.5101 85.6377 96.5101 84.8262C96.5101 84.0147 97.1777 83.3475 97.9896 83.3475C98.8015 83.3475 99.4691 84.0147 99.4691 84.8262C99.4691 85.6377 98.8015 86.3049 97.9896 86.3049ZM97.9896 84.1229C97.6107 84.1229 97.304 84.4295 97.304 84.8082C97.304 85.1869 97.6107 85.4934 97.9896 85.4934C98.3685 85.4934 98.6752 85.1869 98.6752 84.8082C98.6752 84.4295 98.3685 84.1229 97.9896 84.1229Z" fill="#363E44"/>
<path d="M27.3527 105.51C37.24 106.177 60.6053 106.574 62.8786 106.7C67.1367 106.952 89.9606 108.846 90.0508 112.164C90.0869 113.751 85.6845 113.588 84.187 113.48C85.3598 114.147 90.105 116.257 89.69 117.988C89.2029 120.026 83.1586 118.385 83.0503 118.421C84.2952 118.98 89.3833 121.036 89.1126 122.334C88.7698 124.029 83.4833 123.543 81.8956 123.326C82.0399 123.561 87.1279 124.805 86.8032 126.861C86.5686 128.357 81.7152 127.906 79.6042 127.708C75.8152 127.492 31.6648 127.402 23.4554 126.32C20.2439 125.923 23.0224 108.593 27.3527 105.51Z" fill="#E2A18D"/>
<path d="M48.661 106.61C48.643 106.61 48.643 106.61 48.661 106.61C43.6091 106.448 30.4921 105.852 27.3165 105.69C27.1 105.672 26.9377 105.492 26.9377 105.275C26.9557 105.059 27.1361 104.897 27.3526 104.897C30.5281 105.077 43.6451 105.654 48.661 105.816C48.8775 105.816 49.0579 106.015 49.0399 106.231C49.0399 106.448 48.8595 106.61 48.661 106.61Z" fill="#363E44"/>
<path d="M84.2411 113.733C84.187 113.733 84.1328 113.715 84.0787 113.697C83.2668 113.354 82.4368 113.066 81.6069 112.831C80.0913 112.416 78.5216 112.182 76.9519 112.146C76.7354 112.146 76.5549 111.966 76.5549 111.731C76.5549 111.515 76.7534 111.334 76.9699 111.334C78.6118 111.371 80.2537 111.605 81.8234 112.038C82.7075 112.272 83.5735 112.579 84.4035 112.939C84.602 113.03 84.6922 113.264 84.62 113.462C84.5478 113.643 84.4035 113.733 84.2411 113.733Z" fill="#363E44"/>
<path d="M83.1224 118.71C83.0864 118.71 83.0503 118.71 83.0142 118.692C82.8338 118.638 82.6533 118.584 82.4729 118.53C80.9573 118.115 79.3876 117.88 77.8179 117.844C77.6014 117.844 77.421 117.664 77.421 117.43C77.421 117.213 77.6194 117.033 77.8359 117.033C79.4778 117.069 81.1197 117.303 82.6894 117.736C82.8879 117.79 83.0683 117.844 83.2487 117.899C83.4652 117.971 83.5735 118.187 83.5194 118.403C83.4472 118.602 83.3029 118.71 83.1224 118.71Z" fill="#363E44"/>
<path d="M81.7873 123.687C81.7692 123.687 81.7331 123.687 81.7151 123.687C80.7047 123.507 79.6763 123.398 78.6479 123.38C78.4313 123.38 78.2509 123.2 78.2509 122.966C78.2509 122.749 78.4313 122.569 78.6659 122.569C79.7485 122.587 80.813 122.695 81.8594 122.893C82.076 122.93 82.2203 123.146 82.1842 123.362C82.1481 123.543 81.9677 123.687 81.7873 123.687Z" fill="#363E44"/>
<path d="M78.2509 62.2852C75.5806 64.1787 68.0568 59.0393 68.0568 59.0393L63.7446 50.041C63.7446 45.4426 67.4795 41.7098 72.0803 41.7098C76.6812 41.7098 80.416 45.4426 80.416 50.041C80.398 50.041 80.9573 60.3738 78.2509 62.2852Z" fill="#E2A18D"/>
<path d="M69.1936 72.6361H69.8431C72.8562 72.6361 75.292 70.2017 75.292 67.1902V46.705H63.7627V67.2082C63.7447 70.2017 66.1804 72.6361 69.1936 72.6361Z" fill="#E2A18D"/>
<path d="M79.4418 52.223C79.4418 52.223 81.7693 54.6755 81.661 55.3066C81.5167 56.082 78.9185 56.5509 78.9185 56.5509C78.9185 56.5509 79.4959 52.2411 79.4418 52.223Z" fill="#E2A18D"/>
<path d="M71.918 51.8804C71.918 51.8804 73.3073 51.123 74.9852 51.123C75.3461 51.123 74.6604 53.9903 74.3357 53.828C72.8562 53.1067 71.918 51.8804 71.918 51.8804Z" fill="white"/>
<mask id="mask0_4233_6042" style="mask-type:luminance" maskUnits="userSpaceOnUse" x="71" y="51" width="9" height="4">
<path d="M71.918 51.8803C71.918 51.8803 73.9748 50.7803 76.0858 51.2491C78.2149 51.718 79.6041 53.5754 79.6041 53.5754C79.6041 53.5754 77.5473 54.6754 75.4363 54.2065C73.3253 53.7377 71.918 51.8803 71.918 51.8803Z" fill="white"/>
</mask>
<g mask="url(#mask0_4233_6042)">
<path d="M75.0754 51.0509C76.1941 49.9329 77.9803 49.9329 79.0989 51.0509C80.2176 52.169 80.2176 53.9542 79.0989 55.0722C77.9803 56.1903 76.1941 56.1903 75.0754 55.0722C73.9568 53.9722 73.9568 52.169 75.0754 51.0509Z" fill="#363E44"/>
</g>
<path d="M68.8868 51.5918C68.8868 51.5918 70.5287 55.8295 75.0033 56.064C79.4779 56.2984 80.2898 56.2263 80.2898 56.2263L80.8671 60.482C81.1197 62.3574 79.6222 63.9984 77.7277 63.9263L74.5342 63.8C71.3045 63.6738 68.6523 61.1853 68.3095 57.9754L67.9486 54.423L63.7447 52.9082C63.7447 52.9082 56.8704 49.6082 59.4686 44.7754C61.1104 41.7279 63.9431 42.9 63.9431 42.9L74.6424 34.6591C76.7173 33.0541 79.6763 33.2525 81.5347 35.1099C83.3029 36.8771 83.1225 39.7984 81.1378 41.3312L79.6944 42.4492L81.1197 42.1607C82.2745 41.9263 83.4112 42.6836 83.6277 43.8377C84.0787 46.0918 82.3106 48.2017 80.0191 48.1295C78.9907 48.0935 77.836 47.9492 76.6271 47.6066C72.4051 46.4164 68.1651 47.823 68.8868 51.5918Z" fill="#363E44"/>
<path d="M68.8687 53.1787C69.3739 54.6214 68.7785 56.1542 67.5336 56.605C66.2886 57.0378 64.8633 56.2263 64.3581 54.7656C63.8529 53.323 64.4483 51.7902 65.6932 51.3394C66.9382 50.9066 68.3455 51.7361 68.8687 53.1787Z" fill="#E2A18D"/>
<path d="M76.8436 58.4082C76.5549 58.4082 76.2482 58.3181 75.9956 58.1558C75.5085 57.8312 75.2198 57.2541 75.2919 56.6591C75.31 56.4427 75.5085 56.2804 75.725 56.3164C75.9415 56.3345 76.1039 56.5328 76.0678 56.7492C76.0317 57.0377 76.176 57.3263 76.4106 57.4886C76.6632 57.6509 76.988 57.6509 77.2405 57.4886C77.421 57.3623 77.6736 57.4164 77.7818 57.6148C77.9081 57.7951 77.854 58.0476 77.6555 58.1558C77.439 58.3181 77.1323 58.4082 76.8436 58.4082Z" fill="#E2A18D"/>
<path d="M67.4615 55.7574C67.3713 55.7574 67.281 55.7214 67.2089 55.6673L66.0361 54.7296C65.8557 54.5853 65.8376 54.3509 65.982 54.1705C66.1263 53.9902 66.3609 53.9722 66.5413 54.1164L67.7141 55.0541C67.8945 55.1984 67.9125 55.4328 67.7682 55.6132C67.696 55.7033 67.5878 55.7574 67.4615 55.7574Z" fill="#363E44"/>
<path d="M288.321 286.126H284.803C284.496 284.413 284.045 282.736 283.468 281.131L286.517 279.364L280.563 269.049L277.514 270.816C276.395 269.5 275.168 268.292 273.851 267.156L275.619 264.108L265.299 258.157L263.531 261.205C261.925 260.628 260.247 260.177 258.533 259.87V256.354H246.607V259.87C244.893 260.177 243.215 260.628 241.609 261.205L239.841 258.157L229.521 264.108L231.289 267.156C229.972 268.274 228.763 269.5 227.626 270.816L224.577 269.049L218.623 279.364L221.672 281.131C221.095 282.736 220.644 284.413 220.337 286.126H216.818V298.046H220.337C220.644 299.759 221.095 301.436 221.672 303.041L218.623 304.808L224.577 315.123L227.626 313.356C228.745 314.672 229.972 315.88 231.289 317.016L229.521 320.064L239.841 326.015L241.609 322.967C243.215 323.544 244.893 323.995 246.607 324.302V327.818H258.533V324.302C260.247 323.995 261.925 323.544 263.531 322.967L265.299 326.015L275.619 320.064L273.851 317.016C275.168 315.898 276.377 314.672 277.514 313.356L280.563 315.123L286.517 304.808L283.468 303.041C284.045 301.436 284.496 299.759 284.803 298.046H288.321V286.126ZM276.738 301.382C274.302 308.306 268.817 313.788 261.871 316.241C240.563 323.724 220.914 304.105 228.42 282.808C230.856 275.884 236.341 270.402 243.287 267.949C264.595 260.447 284.226 280.085 276.738 301.382Z" fill="#AA3232"/>
</g>
<defs>
<clipPath id="clip0_4233_6042">
<rect width="330" height="330" fill="white"/>
</clipPath>
</defs>
</svg>
