<svg width="302" height="362" viewBox="0 0 302 362" fill="none" xmlns="http://www.w3.org/2000/svg">
<path d="M139 51.9022V362H0V190.823L58.365 132.491L61.3238 229.383C48.3601 233.509 38.6638 248.955 38.6638 267.477C38.6638 289.151 51.9035 306.703 68.2562 306.703C84.609 306.703 97.8487 289.155 97.8487 267.477C97.8487 248.955 88.1522 233.509 75.1886 229.383L78.7724 112.1L139 51.9022Z" fill="#F24A4A"/>
<path d="M302 138.921V310.098H238.963L236.784 220.637C236.666 218.495 237.409 216.394 238.809 214.76L249.009 202.696C253.603 197.288 256.132 190.437 256.132 183.355V133.663C256.132 130.86 253.834 128.564 251.03 128.564H250.953C248.148 128.564 245.892 130.86 245.892 133.663V177.01C245.892 178.491 244.84 179.655 243.517 179.655C242.194 179.655 241.143 178.487 241.143 177.01V133.935C241.143 131.404 239.389 129.031 236.897 128.642C233.707 128.134 230.98 130.589 230.98 133.663V177.01C230.98 178.491 229.888 179.655 228.605 179.655C227.282 179.655 226.19 178.487 226.19 177.01V133.663C226.19 130.86 223.934 128.564 221.129 128.564C218.324 128.564 216.068 130.86 216.068 133.663V177.01C216.068 178.491 214.976 179.655 213.693 179.655C212.37 179.655 211.278 178.487 211.278 177.01V133.663C211.278 130.86 209.022 128.564 206.217 128.564H206.14C203.335 128.564 201.079 130.86 201.079 133.663V183.355C201.079 190.437 203.611 197.284 208.165 202.696L218.406 214.76C219.806 216.394 220.508 218.495 220.431 220.637L218.211 310.098H163.04V0L302 138.921Z" fill="#F24A4A"/>
</svg>
