<svg width="258" height="294" viewBox="0 0 258 294" fill="none" xmlns="http://www.w3.org/2000/svg">
<path d="M43.8477 250.832L15.3506 283.024H39.3711L37.7363 293.4H0L1.63477 282.883L29.6348 251.187H7.39062L9.02539 240.812H45.4111L43.8477 250.832ZM84.4287 251.187H62.8242L61.1191 261.989H80.2363L78.6729 271.796H59.5557L57.7793 283.024H79.3828L77.749 293.4H45.0586L53.373 240.812H86.0635L84.4287 251.187ZM127.406 250.832L98.9082 283.024H122.929L121.295 293.4H83.5586L85.1924 282.883L113.193 251.187H90.9492L92.584 240.812H128.97L127.406 250.832ZM171.327 293.4H159.957L158.109 282.172H141.337L135.794 293.4H123.713L150.434 240.812H161.307L171.327 293.4ZM190.265 283.024H210.731L209.098 293.4H177.544L185.858 240.812H196.945L190.265 283.024ZM255.779 251.187H234.175L232.469 261.989H251.586L250.022 271.796H230.906L229.129 283.024H250.733L249.099 293.4H216.408L224.723 240.812H257.413L255.779 251.187ZM153.916 255.807C153.49 257.015 152.637 259.076 151.784 260.781L146.027 272.791H156.475L154.484 260.781C154.271 259.502 153.916 257.015 153.916 255.807ZM76.3975 195.677C78.311 187.547 85.8443 182.366 93.2188 184.101C99.6401 185.611 103.827 191.863 103.537 198.817C103.498 199.852 103.358 200.906 103.107 201.958C101.194 210.088 93.6605 215.269 86.2861 213.534C79.8646 212.024 75.6792 205.772 75.9668 198.817C76.0059 197.783 76.1471 196.729 76.3975 195.677ZM172.04 195.677C173.954 187.547 181.486 182.366 188.86 184.101C195.282 185.61 199.467 191.863 199.18 198.817C199.141 199.852 198.999 200.906 198.749 201.958C196.835 210.088 189.303 215.269 181.929 213.534C175.507 212.024 171.322 205.772 171.609 198.817C171.648 197.783 171.79 196.729 172.04 195.677ZM185.916 0.224609H230.282C242.282 0.224987 251.113 14.6269 248.294 29.582C247.777 32.322 246.892 34.8983 245.688 37.2021C244.481 39.5079 242.964 41.5457 241.186 43.2041L130.803 146.202C125.649 151.009 129.053 159.638 136.101 159.639H206.758C216.666 159.639 223.952 171.543 221.597 183.884C220.761 188.268 218.81 192.001 216.19 194.638C213.633 197.215 210.438 198.743 207.01 198.815C207.458 187.916 200.894 178.117 190.831 175.748C179.268 173.03 167.462 181.151 164.46 193.895C164.073 195.545 163.852 197.194 163.785 198.819H111.369C111.817 187.92 105.253 178.116 95.1904 175.748C83.627 173.03 71.8209 181.151 68.8193 193.895C68.4378 195.518 68.215 197.136 68.1465 198.729C56.9821 197.517 49.0519 183.756 51.7383 169.481L52.0947 167.582C53.1279 162.106 55.6403 157.278 59.1914 153.957L145.812 72.9697C149.591 69.4377 147.089 63.1055 141.916 63.1055H16.8076C12.7046 63.1055 9.24522 58.9435 9.18652 53.6865C9.15917 50.9916 9.99859 48.5531 11.3701 46.7969C12.7181 45.0681 14.5785 43.9943 16.6367 43.9941H166.683C168.741 43.9941 170.602 42.9242 171.95 41.1953C173.324 39.4391 174.161 36.9965 174.134 34.3057C174.073 29.0429 170.616 24.8869 166.513 24.8867H84.0361C78.679 24.8867 74.333 19.3148 74.333 12.4424C74.333 9.00627 75.4208 5.89458 77.1738 3.64355C78.9309 1.39251 81.3576 0 84.0361 0H185.916V0.224609ZM88.9219 83.5449C93.3045 83.545 96.8573 87.0967 96.8574 91.4775C96.8574 95.8585 93.3046 99.4101 88.9219 99.4102H44.1514C39.7686 99.4102 36.2148 95.8585 36.2148 91.4775C36.2149 87.0966 39.7687 83.5449 44.1514 83.5449H88.9219Z" fill="#FFC024"/>
</svg>
