<svg width="24" height="24" viewBox="0 0 24 24" fill="none" xmlns="http://www.w3.org/2000/svg">
<path d="M9.99463 11.9932H13.9925" stroke="#4F39F6" stroke-width="1.99892" stroke-linecap="round" stroke-linejoin="round"/>
<path d="M9.99463 7.99609H13.9925" stroke="#4F39F6" stroke-width="1.99892" stroke-linecap="round" stroke-linejoin="round"/>
<path d="M13.9925 20.9885V17.9901C13.9925 17.46 13.7819 16.9516 13.407 16.5767C13.0321 16.2018 12.5237 15.9912 11.9936 15.9912C11.4634 15.9912 10.955 16.2018 10.5801 16.5767C10.2052 16.9516 9.99463 17.46 9.99463 17.9901V20.9885" stroke="#4F39F6" stroke-width="1.99892" stroke-linecap="round" stroke-linejoin="round"/>
<path d="M5.99675 9.99448H3.99783C3.46768 9.99448 2.95924 10.2051 2.58437 10.58C2.2095 10.9548 1.9989 11.4633 1.9989 11.9934V18.9896C1.9989 19.5198 2.2095 20.0282 2.58437 20.4031C2.95924 20.778 3.46768 20.9886 3.99783 20.9886H19.9892C20.5194 20.9886 21.0278 20.778 21.4027 20.4031C21.7775 20.0282 21.9881 19.5198 21.9881 18.9896V8.99502C21.9881 8.46487 21.7775 7.95644 21.4027 7.58156C21.0278 7.20669 20.5194 6.99609 19.9892 6.99609H17.9903" stroke="#4F39F6" stroke-width="1.99892" stroke-linecap="round" stroke-linejoin="round"/>
<path d="M5.99677 20.9884V4.99697C5.99677 4.46682 6.20737 3.95839 6.58224 3.58352C6.95711 3.20865 7.46554 2.99805 7.99569 2.99805H15.9914C16.5215 2.99805 17.03 3.20865 17.4048 3.58352C17.7797 3.95839 17.9903 4.46682 17.9903 4.99697V20.9884" stroke="#4F39F6" stroke-width="1.99892" stroke-linecap="round" stroke-linejoin="round"/>
</svg>
