<svg width="20" height="20" viewBox="0 0 20 20" fill="none" xmlns="http://www.w3.org/2000/svg">
<path d="M8.55341 17.4933C8.69964 17.7465 8.90995 17.9568 9.16321 18.103C9.41647 18.2493 9.70376 18.3262 9.99619 18.3262C10.2886 18.3262 10.5759 18.2493 10.8292 18.103C11.0824 17.9568 11.2927 17.7465 11.439 17.4933" stroke="white" stroke-opacity="0.8" stroke-width="1.66603" stroke-linecap="round" stroke-linejoin="round"/>
<path d="M2.71731 12.7668C2.60848 12.8861 2.53667 13.0344 2.5106 13.1937C2.48453 13.3531 2.50532 13.5165 2.57045 13.6643C2.63558 13.812 2.74224 13.9376 2.87746 14.0259C3.01267 14.1141 3.17062 14.1611 3.33207 14.1613H16.6603C16.8218 14.1613 16.9798 14.1145 17.1151 14.0264C17.2504 13.9383 17.3572 13.8129 17.4225 13.6652C17.4878 13.5176 17.5088 13.3541 17.4829 13.1948C17.457 13.0354 17.3854 12.887 17.2768 12.7676C16.1689 11.6256 14.9943 10.4119 14.9943 6.66412C14.9943 5.33854 14.4677 4.06725 13.5304 3.12993C12.5931 2.1926 11.3218 1.66602 9.9962 1.66602C8.67063 1.66602 7.39934 2.1926 6.46202 3.12993C5.52469 4.06725 4.99811 5.33854 4.99811 6.66412C4.99811 10.4119 3.82272 11.6256 2.71731 12.7668Z" stroke="white" stroke-opacity="0.8" stroke-width="1.66603" stroke-linecap="round" stroke-linejoin="round"/>
</svg>
