<svg width="24" height="24" viewBox="0 0 24 24" fill="none" xmlns="http://www.w3.org/2000/svg">
<path d="M15.9914 20.989V18.99C15.9914 17.9297 15.5702 16.9129 14.8204 16.1631C14.0707 15.4134 13.0538 14.9922 11.9935 14.9922H5.99675C4.93645 14.9922 3.91959 15.4134 3.16984 16.1631C2.4201 16.9129 1.9989 17.9297 1.9989 18.99V20.989" stroke="#00A63E" stroke-width="1.99892" stroke-linecap="round" stroke-linejoin="round"/>
<path d="M15.9913 3.12598C16.8486 3.34823 17.6079 3.84885 18.1499 4.54927C18.6918 5.24969 18.9859 6.11026 18.9859 6.99589C18.9859 7.88153 18.6918 8.74209 18.1499 9.44251C17.6079 10.1429 16.8486 10.6436 15.9913 10.8658" stroke="#00A63E" stroke-width="1.99892" stroke-linecap="round" stroke-linejoin="round"/>
<path d="M21.9881 20.9889V18.99C21.9875 18.1042 21.6926 17.2437 21.1499 16.5436C20.6073 15.8435 19.8474 15.3435 18.9897 15.1221" stroke="#00A63E" stroke-width="1.99892" stroke-linecap="round" stroke-linejoin="round"/>
<path d="M8.99516 10.9937C11.2031 10.9937 12.993 9.20385 12.993 6.9959C12.993 4.78794 11.2031 2.99805 8.99516 2.99805C6.78721 2.99805 4.99731 4.78794 4.99731 6.9959C4.99731 9.20385 6.78721 10.9937 8.99516 10.9937Z" stroke="#00A63E" stroke-width="1.99892" stroke-linecap="round" stroke-linejoin="round"/>
</svg>
