<svg width="20" height="20" viewBox="0 0 20 20" fill="none" xmlns="http://www.w3.org/2000/svg">
<path d="M16.6603 6.66406H3.33204C2.87198 6.66406 2.49902 7.03702 2.49902 7.49708V9.16311C2.49902 9.62317 2.87198 9.99613 3.33204 9.99613H16.6603C17.1204 9.99613 17.4933 9.62317 17.4933 9.16311V7.49708C17.4933 7.03702 17.1204 6.66406 16.6603 6.66406Z" stroke="#4F39F6" stroke-width="1.66603" stroke-linecap="round" stroke-linejoin="round"/>
<path d="M9.99622 6.66406V17.4933" stroke="#4F39F6" stroke-width="1.66603" stroke-linecap="round" stroke-linejoin="round"/>
<path d="M15.8273 9.99609V15.8272C15.8273 16.2691 15.6517 16.6928 15.3393 17.0053C15.0269 17.3177 14.6031 17.4932 14.1612 17.4932H5.83107C5.38921 17.4932 4.96545 17.3177 4.65301 17.0053C4.34057 16.6928 4.16504 16.2691 4.16504 15.8272V9.99609" stroke="#4F39F6" stroke-width="1.66603" stroke-linecap="round" stroke-linejoin="round"/>
<path d="M6.24758 6.66447C5.69526 6.66447 5.16555 6.44506 4.775 6.05451C4.38445 5.66396 4.16504 5.13425 4.16504 4.58193C4.16504 4.0296 4.38445 3.4999 4.775 3.10935C5.16555 2.7188 5.69526 2.49939 6.24758 2.49939C7.05118 2.48539 7.83866 2.87529 8.50733 3.61826C9.17601 4.36123 9.69483 5.42278 9.99615 6.66447C10.2975 5.42278 10.8163 4.36123 11.485 3.61826C12.1536 2.87529 12.9411 2.48539 13.7447 2.49939C14.2971 2.49939 14.8268 2.7188 15.2173 3.10935C15.6079 3.4999 15.8273 4.0296 15.8273 4.58193C15.8273 5.13425 15.6079 5.66396 15.2173 6.05451C14.8268 6.44506 14.2971 6.66447 13.7447 6.66447" stroke="#4F39F6" stroke-width="1.66603" stroke-linecap="round" stroke-linejoin="round"/>
</svg>
