<svg width="16" height="16" viewBox="0 0 16 16" fill="none" xmlns="http://www.w3.org/2000/svg">
<g clip-path="url(#clip0_1_5262)">
<path d="M11.9982 5.33243C13.1027 5.33243 13.998 4.43713 13.998 3.33272C13.998 2.22831 13.1027 1.33301 11.9982 1.33301C10.8938 1.33301 9.99854 2.22831 9.99854 3.33272C9.99854 4.43713 10.8938 5.33243 11.9982 5.33243Z" stroke="white" stroke-width="1.33314" stroke-linecap="round" stroke-linejoin="round"/>
<path d="M3.99947 9.99845C5.10388 9.99845 5.99918 9.10315 5.99918 7.99874C5.99918 6.89433 5.10388 5.99902 3.99947 5.99902C2.89506 5.99902 1.99976 6.89433 1.99976 7.99874C1.99976 9.10315 2.89506 9.99845 3.99947 9.99845Z" stroke="white" stroke-width="1.33314" stroke-linecap="round" stroke-linejoin="round"/>
<path d="M11.9982 14.6645C13.1027 14.6645 13.998 13.7692 13.998 12.6648C13.998 11.5603 13.1027 10.665 11.9982 10.665C10.8938 10.665 9.99854 11.5603 9.99854 12.6648C9.99854 13.7692 10.8938 14.6645 11.9982 14.6645Z" stroke="white" stroke-width="1.33314" stroke-linecap="round" stroke-linejoin="round"/>
<path d="M5.72583 9.00586L10.2785 11.6588" stroke="white" stroke-width="1.33314" stroke-linecap="round" stroke-linejoin="round"/>
<path d="M10.2718 4.33984L5.72583 6.9928" stroke="white" stroke-width="1.33314" stroke-linecap="round" stroke-linejoin="round"/>
</g>
<defs>
<clipPath id="clip0_1_5262">
<rect width="15.9977" height="15.9977" fill="white"/>
</clipPath>
</defs>
</svg>
