<svg width="18" height="20" viewBox="0 0 18 20" fill="none" xmlns="http://www.w3.org/2000/svg">
<path d="M12.7509 19C12.7509 19.1989 12.6718 19.3897 12.5312 19.5303C12.3905 19.671 12.1998 19.75 12.0009 19.75H6.00087C5.80195 19.75 5.61119 19.671 5.47054 19.5303C5.32988 19.3897 5.25087 19.1989 5.25087 19C5.25087 18.8011 5.32988 18.6103 5.47054 18.4697C5.61119 18.329 5.80195 18.25 6.00087 18.25H12.0009C12.1998 18.25 12.3905 18.329 12.5312 18.4697C12.6718 18.6103 12.7509 18.8011 12.7509 19ZM17.7956 14.4944C17.2743 13.5981 16.5009 11.0622 16.5009 7.75C16.5009 5.76088 15.7107 3.85322 14.3042 2.4467C12.8976 1.04018 10.99 0.25 9.00087 0.25C7.01174 0.25 5.10409 1.04018 3.69757 2.4467C2.29104 3.85322 1.50087 5.76088 1.50087 7.75C1.50087 11.0631 0.726491 13.5981 0.206179 14.4944C0.0733076 14.7222 0.00286746 14.9811 0.00196197 15.2449C0.00105647 15.5086 0.0697178 15.768 0.201022 15.9967C0.332325 16.2255 0.521628 16.4156 0.74984 16.5478C0.978052 16.6801 1.2371 16.7498 1.50087 16.75H16.5009C16.7645 16.7496 17.0235 16.6798 17.2516 16.5475C17.4796 16.4151 17.6688 16.225 17.8 15.9963C17.9312 15.7676 17.9998 15.5083 17.9988 15.2446C17.9979 14.9809 17.9274 14.7222 17.7946 14.4944H17.7956Z" fill="#2AD587"/>
</svg>
