<svg width="22" height="22" viewBox="0 0 22 22" fill="none" xmlns="http://www.w3.org/2000/svg">
<path d="M12.3982 3.94712C12.4215 3.85987 12.4618 3.77807 12.5168 3.7064C12.5718 3.63473 12.6403 3.57459 12.7185 3.52942C12.7967 3.48425 12.8831 3.45493 12.9726 3.44314C13.0622 3.43135 13.1532 3.43732 13.2404 3.46071C14.5149 3.79325 15.6777 4.45952 16.6091 5.3909C17.5405 6.32228 18.2068 7.48511 18.5393 8.75962C18.5627 8.84686 18.5687 8.93785 18.5569 9.02739C18.5451 9.11694 18.5158 9.20328 18.4706 9.28149C18.4254 9.3597 18.3653 9.42825 18.2936 9.48321C18.2219 9.53817 18.1402 9.57847 18.0529 9.60181C17.9948 9.61706 17.935 9.62486 17.875 9.62501C17.7236 9.62506 17.5765 9.57513 17.4563 9.48299C17.3362 9.39084 17.2499 9.26163 17.2107 9.1154C16.9396 8.07481 16.3959 7.12536 15.6356 6.36492C14.8754 5.60449 13.926 5.06059 12.8855 4.78931C12.7981 4.76606 12.7163 4.72583 12.6445 4.67091C12.5727 4.61599 12.5125 4.54745 12.4672 4.46923C12.422 4.39101 12.3926 4.30464 12.3807 4.21505C12.3689 4.12546 12.3748 4.03441 12.3982 3.94712ZM12.198 7.53931C13.3831 7.85556 14.1445 8.61782 14.4607 9.8029C14.4999 9.94913 14.5862 10.0783 14.7063 10.1705C14.8265 10.2626 14.9736 10.3126 15.125 10.3125C15.185 10.3124 15.2448 10.3046 15.3029 10.2893C15.3902 10.266 15.4719 10.2257 15.5436 10.1707C15.6153 10.1157 15.6754 10.0472 15.7206 9.96899C15.7658 9.89078 15.7951 9.80444 15.8069 9.71489C15.8187 9.62535 15.8127 9.53436 15.7893 9.44712C15.3493 7.80056 14.1995 6.65071 12.5529 6.21071C12.3767 6.16365 12.1891 6.1885 12.0312 6.2798C11.8733 6.3711 11.7582 6.52137 11.7111 6.69755C11.6641 6.87373 11.6889 7.06139 11.7802 7.21925C11.8715 7.37711 12.0218 7.49224 12.198 7.53931ZM18.4224 14.3052L14.3739 12.491L14.3627 12.4859C14.1526 12.396 13.9233 12.3599 13.6957 12.3809C13.468 12.4019 13.2492 12.4793 13.0591 12.6062C13.0367 12.621 13.0152 12.637 12.9946 12.6543L10.9029 14.4375C9.57774 13.7938 8.20962 12.436 7.56595 11.1281L9.35173 9.00454C9.36891 8.98306 9.38524 8.96157 9.40071 8.93837C9.52483 8.74871 9.60013 8.5313 9.61993 8.3055C9.63972 8.0797 9.60338 7.85251 9.51415 7.64415V7.63384L7.69485 3.57845C7.57689 3.30625 7.37407 3.07951 7.11665 2.93206C6.85924 2.78461 6.56104 2.72437 6.26657 2.76032C5.10209 2.91355 4.03321 3.48544 3.25956 4.36915C2.48591 5.25287 2.0604 6.38799 2.06251 7.56251C2.06251 14.3859 7.61407 19.9375 14.4375 19.9375C15.612 19.9396 16.7471 19.5141 17.6309 18.7405C18.5146 17.9668 19.0865 16.8979 19.2397 15.7334C19.2757 15.4391 19.2156 15.141 19.0683 14.8836C18.921 14.6261 18.6945 14.4233 18.4224 14.3052Z" fill="white"/>
</svg>
