<svg width="14" height="8" viewBox="0 0 14 8" fill="none" xmlns="http://www.w3.org/2000/svg">
<path d="M13.5813 0.831276L7.33128 7.08128C7.24339 7.16906 7.12425 7.21836 7.00003 7.21836C6.87581 7.21836 6.75667 7.16906 6.66878 7.08128L0.418776 0.831276C0.335976 0.742417 0.290899 0.624888 0.293042 0.50345C0.295184 0.382012 0.344379 0.266146 0.430262 0.180263C0.516146 0.0943799 0.632011 0.0451844 0.75345 0.0430418C0.874888 0.0408991 0.992417 0.0859766 1.08128 0.168777L7.00003 6.08675L12.9188 0.168777C13.0076 0.0859766 13.1252 0.0408991 13.2466 0.0430418C13.368 0.0451844 13.4839 0.0943799 13.5698 0.180263C13.6557 0.266146 13.7049 0.382012 13.707 0.50345C13.7092 0.624888 13.6641 0.742417 13.5813 0.831276Z" fill="#18181B"/>
</svg>
