<svg width="20" height="20" viewBox="0 0 20 20" fill="none" xmlns="http://www.w3.org/2000/svg">
<g clip-path="url(#clip0_1_894)">
<path d="M12.4952 17.4932V10.8291C12.4952 10.6082 12.4075 10.3963 12.2513 10.2401C12.095 10.0839 11.8832 9.99609 11.6622 9.99609H8.33017C8.10924 9.99609 7.89736 10.0839 7.74114 10.2401C7.58491 10.3963 7.49715 10.6082 7.49715 10.8291V17.4932" stroke="#90A1B9" stroke-width="1.66603" stroke-linecap="round" stroke-linejoin="round"/>
<path d="M2.49905 8.33006C2.49899 8.08771 2.55181 7.84826 2.65381 7.62842C2.75582 7.40858 2.90456 7.21365 3.08966 7.05721L8.92077 2.05911C9.22148 1.80496 9.60248 1.66553 9.9962 1.66553C10.3899 1.66553 10.7709 1.80496 11.0716 2.05911L16.9027 7.05721C17.0878 7.21365 17.2366 7.40858 17.3386 7.62842C17.4406 7.84826 17.4934 8.08771 17.4933 8.33006V15.8272C17.4933 16.2691 17.3178 16.6928 17.0054 17.0053C16.6929 17.3177 16.2692 17.4932 15.8273 17.4932H4.16508C3.72322 17.4932 3.29946 17.3177 2.98702 17.0053C2.67458 16.6928 2.49905 16.2691 2.49905 15.8272V8.33006Z" stroke="#90A1B9" stroke-width="1.66603" stroke-linecap="round" stroke-linejoin="round"/>
</g>
<defs>
<clipPath id="clip0_1_894">
<rect width="19.9924" height="19.9924" fill="white"/>
</clipPath>
</defs>
</svg>
