<svg width="19" height="22" viewBox="0 0 19 22" fill="none" xmlns="http://www.w3.org/2000/svg">
<path d="M9.406 3.1543V22H0.862305V11.597L4.44972 8.05198L4.63159 13.9404C3.83477 14.1911 3.23878 15.1299 3.23878 16.2555C3.23878 17.5727 4.05256 18.6394 5.05769 18.6394C6.06281 18.6394 6.8766 17.573 6.8766 16.2555C6.8766 15.1299 6.2806 14.1911 5.48379 13.9404L5.70407 6.8127L9.406 3.1543Z" fill="#F24A4A"/>
<path d="M18.6349 8.44268V18.8457H14.7604L14.6264 13.4089C14.6192 13.2787 14.6648 13.151 14.7509 13.0517L15.3778 12.3185C15.6602 11.9899 15.8157 11.5735 15.8157 11.1431V8.12319C15.8157 7.95284 15.6745 7.81331 15.5021 7.81331H15.4973C15.3249 7.81331 15.1862 7.95284 15.1862 8.12319V10.7575C15.1862 10.8475 15.1216 10.9183 15.0403 10.9183C14.959 10.9183 14.8944 10.8473 14.8944 10.7575V8.13971C14.8944 7.98588 14.7866 7.84166 14.6334 7.81799C14.4373 7.78718 14.2697 7.93633 14.2697 8.12319V10.7575C14.2697 10.8475 14.2026 10.9183 14.1237 10.9183C14.0424 10.9183 13.9753 10.8473 13.9753 10.7575V8.12319C13.9753 7.95284 13.8366 7.81331 13.6642 7.81331C13.4918 7.81331 13.3531 7.95284 13.3531 8.12319V10.7575C13.3531 10.8475 13.286 10.9183 13.2072 10.9183C13.1258 10.9183 13.0587 10.8473 13.0587 10.7575V8.12319C13.0587 7.95284 12.92 7.81331 12.7476 7.81331H12.7429C12.5705 7.81331 12.4318 7.95284 12.4318 8.12319V11.1431C12.4318 11.5735 12.5875 11.9897 12.8674 12.3185L13.4968 13.0517C13.5829 13.151 13.626 13.2787 13.6213 13.4089L13.4848 18.8457H10.0938V0L18.6349 8.44268Z" fill="#F24A4A"/>
</svg>
