<svg width="20" height="20" viewBox="0 0 20 20" fill="none" xmlns="http://www.w3.org/2000/svg">
<g clip-path="url(#clip0_1_1030)">
<path d="M9.99619 5.83105V17.4933" stroke="#90A1B9" stroke-width="1.66603" stroke-linecap="round" stroke-linejoin="round"/>
<path d="M2.49906 14.9943C2.27813 14.9943 2.06625 14.9065 1.91003 14.7503C1.75381 14.5941 1.66605 14.3822 1.66605 14.1613V3.33204C1.66605 3.11111 1.75381 2.89923 1.91003 2.74301C2.06625 2.58679 2.27813 2.49902 2.49906 2.49902H6.66415C7.54786 2.49902 8.39539 2.85008 9.02027 3.47496C9.64516 4.09985 9.99621 4.94737 9.99621 5.83109C9.99621 4.94737 10.3473 4.09985 10.9722 3.47496C11.597 2.85008 12.4446 2.49902 13.3283 2.49902H17.4934C17.7143 2.49902 17.9262 2.58679 18.0824 2.74301C18.2386 2.89923 18.3264 3.11111 18.3264 3.33204V14.1613C18.3264 14.3822 18.2386 14.5941 18.0824 14.7503C17.9262 14.9065 17.7143 14.9943 17.4934 14.9943H12.4953C11.8325 14.9943 11.1968 15.2576 10.7282 15.7262C10.2595 16.1949 9.99621 16.8305 9.99621 17.4933C9.99621 16.8305 9.73292 16.1949 9.26426 15.7262C8.79559 15.2576 8.15995 14.9943 7.49716 14.9943H2.49906Z" stroke="#90A1B9" stroke-width="1.66603" stroke-linecap="round" stroke-linejoin="round"/>
</g>
<defs>
<clipPath id="clip0_1_1030">
<rect width="19.9924" height="19.9924" fill="white"/>
</clipPath>
</defs>
</svg>
