<svg width="24" height="24" viewBox="0 0 24 24" fill="none" xmlns="http://www.w3.org/2000/svg">
<path d="M22 0H2C1.46957 0 0.960859 0.210714 0.585786 0.585786C0.210714 0.960859 0 1.46957 0 2V22C0 22.5304 0.210714 23.0391 0.585786 23.4142C0.960859 23.7893 1.46957 24 2 24H22C22.5304 24 23.0391 23.7893 23.4142 23.4142C23.7893 23.0391 24 22.5304 24 22V2C24 1.46957 23.7893 0.960859 23.4142 0.585786C23.0391 0.210714 22.5304 0 22 0ZM4.5 19.5C4.20333 19.5 3.91332 19.412 3.66664 19.2472C3.41997 19.0824 3.22771 18.8481 3.11418 18.574C3.00065 18.2999 2.97094 17.9983 3.02882 17.7074C3.0867 17.4164 3.22956 17.1491 3.43934 16.9393C3.64912 16.7296 3.91639 16.5867 4.20736 16.5288C4.49834 16.4709 4.79994 16.5007 5.07403 16.6142C5.34811 16.7277 5.58238 16.92 5.7472 17.1666C5.91203 17.4133 6 17.7033 6 18C6 18.3978 5.84196 18.7794 5.56066 19.0607C5.27936 19.342 4.89782 19.5 4.5 19.5ZM4.5 13.5C4.20333 13.5 3.91332 13.412 3.66664 13.2472C3.41997 13.0824 3.22771 12.8481 3.11418 12.574C3.00065 12.2999 2.97094 11.9983 3.02882 11.7074C3.0867 11.4164 3.22956 11.1491 3.43934 10.9393C3.64912 10.7296 3.91639 10.5867 4.20736 10.5288C4.49834 10.4709 4.79994 10.5006 5.07403 10.6142C5.34811 10.7277 5.58238 10.92 5.7472 11.1666C5.91203 11.4133 6 11.7033 6 12C6 12.3978 5.84196 12.7794 5.56066 13.0607C5.27936 13.342 4.89782 13.5 4.5 13.5ZM4.5 7.5C4.20333 7.5 3.91332 7.41203 3.66664 7.2472C3.41997 7.08238 3.22771 6.84811 3.11418 6.57403C3.00065 6.29994 2.97094 5.99834 3.02882 5.70736C3.0867 5.41639 3.22956 5.14912 3.43934 4.93934C3.64912 4.72956 3.91639 4.5867 4.20736 4.52882C4.49834 4.47094 4.79994 4.50065 5.07403 4.61418C5.34811 4.72771 5.58238 4.91997 5.7472 5.16665C5.91203 5.41332 6 5.70333 6 6C6 6.39782 5.84196 6.77936 5.56066 7.06066C5.27936 7.34196 4.89782 7.5 4.5 7.5ZM20 19H9C8.73478 19 8.48043 18.8946 8.29289 18.7071C8.10536 18.5196 8 18.2652 8 18C8 17.7348 8.10536 17.4804 8.29289 17.2929C8.48043 17.1054 8.73478 17 9 17H20C20.2652 17 20.5196 17.1054 20.7071 17.2929C20.8946 17.4804 21 17.7348 21 18C21 18.2652 20.8946 18.5196 20.7071 18.7071C20.5196 18.8946 20.2652 19 20 19ZM20 13H9C8.73478 13 8.48043 12.8946 8.29289 12.7071C8.10536 12.5196 8 12.2652 8 12C8 11.7348 8.10536 11.4804 8.29289 11.2929C8.48043 11.1054 8.73478 11 9 11H20C20.2652 11 20.5196 11.1054 20.7071 11.2929C20.8946 11.4804 21 11.7348 21 12C21 12.2652 20.8946 12.5196 20.7071 12.7071C20.5196 12.8946 20.2652 13 20 13ZM20 7H9C8.73478 7 8.48043 6.89464 8.29289 6.70711C8.10536 6.51957 8 6.26522 8 6C8 5.73478 8.10536 5.48043 8.29289 5.29289C8.48043 5.10536 8.73478 5 9 5H20C20.2652 5 20.5196 5.10536 20.7071 5.29289C20.8946 5.48043 21 5.73478 21 6C21 6.26522 20.8946 6.51957 20.7071 6.70711C20.5196 6.89464 20.2652 7 20 7Z" fill="#343330"/>
</svg>
