<svg width="20" height="20" viewBox="0 0 20 20" fill="none" xmlns="http://www.w3.org/2000/svg">
<g clip-path="url(#clip0_1_1022)">
<path d="M12.4952 17.4935V13.3284C12.4952 13.1074 12.4075 12.8956 12.2513 12.7393C12.095 12.5831 11.8832 12.4954 11.6622 12.4954H8.33016C8.10923 12.4954 7.89735 12.5831 7.74113 12.7393C7.58491 12.8956 7.49715 13.1074 7.49715 13.3284V17.4935" stroke="#90A1B9" stroke-width="1.66603" stroke-linecap="round" stroke-linejoin="round"/>
<path d="M14.806 8.58838C14.6324 8.42214 14.4013 8.32935 14.1609 8.32935C13.9205 8.32935 13.6893 8.42214 13.5157 8.58838C13.1283 8.95784 12.6136 9.16396 12.0783 9.16396C11.543 9.16396 11.0283 8.95784 10.6409 8.58838C10.4673 8.42239 10.2364 8.32975 9.99619 8.32975C9.75599 8.32975 9.52505 8.42239 9.35144 8.58838C8.96405 8.95809 8.44914 9.16436 7.91365 9.16436C7.37816 9.16436 6.86325 8.95809 6.47586 8.58838C6.30221 8.42214 6.07109 8.32935 5.83069 8.32935C5.59029 8.32935 5.35917 8.42214 5.18552 8.58838C4.81137 8.94543 4.31775 9.15048 3.80074 9.16362C3.28373 9.17677 2.78032 8.99707 2.38851 8.6595C1.99669 8.32194 1.74449 7.85066 1.68101 7.33739C1.61752 6.82413 1.74729 6.3056 2.04505 5.88275L4.45163 2.3974C4.60433 2.17208 4.80991 1.98761 5.05039 1.8601C5.29087 1.7326 5.55892 1.66597 5.83111 1.66602H14.1613C14.4327 1.66591 14.7 1.73211 14.94 1.85885C15.1799 1.98559 15.3853 2.16904 15.5383 2.39324L17.9498 5.88524C18.2477 6.30844 18.3773 6.82736 18.3134 7.34089C18.2495 7.85442 17.9967 8.32577 17.6043 8.6631C17.2118 9.00042 16.7079 9.17955 16.1906 9.16559C15.6733 9.15162 15.1797 8.94556 14.806 8.58755" stroke="#90A1B9" stroke-width="1.66603" stroke-linecap="round" stroke-linejoin="round"/>
<path d="M3.33206 9.12158V15.8274C3.33206 16.2692 3.50759 16.693 3.82003 17.0054C4.13247 17.3179 4.55624 17.4934 4.99809 17.4934H14.9943C15.4362 17.4934 15.8599 17.3179 16.1724 17.0054C16.4848 16.693 16.6603 16.2692 16.6603 15.8274V9.12158" stroke="#90A1B9" stroke-width="1.66603" stroke-linecap="round" stroke-linejoin="round"/>
</g>
<defs>
<clipPath id="clip0_1_1022">
<rect width="19.9924" height="19.9924" fill="white"/>
</clipPath>
</defs>
</svg>
