<svg width="10" height="12" viewBox="0 0 10 12" fill="none" xmlns="http://www.w3.org/2000/svg">
<path d="M9.24728 5.43454C9.20664 5.47522 9.15839 5.50749 9.10528 5.5295C9.05217 5.55152 8.99524 5.56285 8.93774 5.56285C8.88025 5.56285 8.82332 5.55152 8.77021 5.5295C8.71709 5.50749 8.66884 5.47522 8.62821 5.43454L5.43774 2.24352V10.8125C5.43774 10.9285 5.39165 11.0398 5.3096 11.1219C5.22756 11.2039 5.11628 11.25 5.00024 11.25C4.88421 11.25 4.77293 11.2039 4.69088 11.1219C4.60884 11.0398 4.56274 10.9285 4.56274 10.8125V2.24352L1.37227 5.43454C1.29018 5.51663 1.17884 5.56275 1.06274 5.56275C0.946647 5.56275 0.835305 5.51663 0.753212 5.43454C0.671119 5.35245 0.625 5.24111 0.625 5.12501C0.625 5.00891 0.671119 4.89757 0.753212 4.81548L4.69071 0.877977C4.73134 0.8373 4.7796 0.80503 4.83271 0.783014C4.88582 0.760997 4.94275 0.749664 5.00024 0.749664C5.05774 0.749664 5.11467 0.760997 5.16778 0.783014C5.22089 0.80503 5.26914 0.8373 5.30977 0.877977L9.24728 4.81548C9.28795 4.85611 9.32022 4.90436 9.34224 4.95747C9.36426 5.01058 9.37559 5.06751 9.37559 5.12501C9.37559 5.1825 9.36426 5.23943 9.34224 5.29255C9.32022 5.34566 9.28795 5.39391 9.24728 5.43454Z" fill="#4A4AF2"/>
</svg>
